<?xml version="1.0" standalone="no"?>
<!DOCTYPE svg PUBLIC "-//W3C//DTD SVG 20010904//EN"
 "http://www.w3.org/TR/2001/REC-SVG-20010904/DTD/svg10.dtd">
<svg version="1.0" xmlns="http://www.w3.org/2000/svg"
 width="512.000000pt" height="512.000000pt" viewBox="0 0 512.000000 512.000000"
 preserveAspectRatio="xMidYMid meet">
<metadata>
Created by potrace 1.11, written by Peter Selinger 2001-2013
</metadata>
<g transform="translate(0.000000,512.000000) scale(0.100000,-0.100000)"
fill="#000000" stroke="none">
<path d="M1690 4899 c-129 -27 -455 -94 -725 -149 -269 -55 -508 -105 -530
-111 -90 -24 -156 -97 -174 -193 -7 -39 -1 -89 40 -299 27 -139 52 -273 55
-299 5 -44 3 -48 -15 -48 -12 0 -21 -6 -21 -13 0 -17 -33 -44 -48 -39 -7 2
-15 -3 -18 -12 -3 -9 -12 -16 -20 -16 -8 0 -14 -9 -14 -20 0 -22 25 -28 33 -7
4 9 6 9 6 0 1 -6 -8 -18 -19 -26 -18 -12 -18 -15 -5 -20 26 -11 18 -37 -12
-38 -17 -1 -21 -3 -11 -6 10 -2 18 -12 18 -22 0 -9 7 -26 15 -37 8 -10 15 -38
15 -60 0 -70 11 -106 29 -99 8 3 13 3 9 0 -4 -4 7 -31 23 -60 18 -33 27 -60
22 -71 -5 -13 -3 -16 8 -12 10 4 15 -1 16 -16 4 -56 15 -106 24 -106 5 0 9 -8
9 -18 0 -11 11 -24 25 -30 22 -10 24 -17 20 -49 -2 -20 -8 -39 -13 -42 -18
-12 -32 -50 -34 -95 -2 -25 -6 -46 -10 -46 -13 0 -9 -38 5 -43 10 -4 10 -6 0
-6 -7 -1 -13 -12 -13 -26 0 -14 -4 -25 -10 -25 -21 0 -9 -20 13 -21 21 -1 21
-1 -3 -9 l-25 -8 25 -2 25 -2 -25 -9 c-22 -8 -21 -8 8 -4 17 2 32 0 32 -5 0
-5 15 -16 34 -25 18 -9 47 -30 65 -47 25 -25 31 -38 31 -73 0 -44 -33 -94 -65
-96 -8 -1 -21 -2 -27 -3 -43 -6 -118 35 -118 64 0 6 -4 9 -8 6 -7 -4 -10 11
-13 56 0 9 -7 22 -15 29 -13 10 -17 10 -25 -2 -7 -11 -9 -9 -9 9 0 13 4 21 9
18 5 -4 7 3 4 14 -4 16 -2 19 13 14 16 -6 16 -4 -3 15 -29 27 -33 27 -34 -6
l-1 -28 -10 28 c-5 15 -16 27 -24 27 -8 0 -14 7 -14 15 0 9 -9 15 -25 15 -14
0 -25 -4 -25 -10 0 -5 -7 -10 -15 -10 -8 0 -15 3 -15 8 0 4 -24 7 -52 7 -42 0
-55 -4 -65 -20 -9 -15 -12 -185 -13 -700 0 -374 3 -690 6 -702 5 -18 11 -22
30 -17 18 5 24 2 24 -10 0 -9 7 -16 16 -16 12 0 15 -9 12 -37 -2 -22 2 -38 10
-41 6 -2 12 -10 12 -18 0 -9 -5 -12 -10 -9 -6 3 -10 -3 -10 -14 0 -11 4 -23
10 -26 5 -3 9 -14 9 -23 -1 -16 -2 -16 -6 0 -2 9 -13 20 -24 23 -10 4 -19 9
-19 13 0 4 -12 21 -26 37 -14 17 -9 6 11 -24 l37 -54 -31 22 c-31 22 -31 22
-31 2 0 -41 40 -198 70 -277 36 -95 115 -236 177 -317 207 -269 536 -453 873
-487 162 -16 2850 -8 2933 9 465 95 838 421 976 856 18 55 34 113 36 130 1 16
6 38 10 48 4 9 5 28 3 42 -3 13 -2 22 2 20 4 -2 10 30 14 72 8 96 8 866 0 887
-7 17 -34 22 -34 6 0 -5 -6 -10 -14 -10 -8 0 -23 -11 -34 -25 -11 -13 -22 -22
-25 -18 -4 3 -9 -2 -13 -11 -3 -9 -14 -16 -25 -16 -10 0 -23 -8 -28 -19 -9
-17 -31 -24 -95 -35 -11 -1 -21 -7 -23 -13 -6 -16 -68 1 -67 18 1 8 -7 15 -17
15 -11 0 -19 -6 -19 -13 0 -7 -7 -13 -16 -13 -8 0 -12 4 -9 10 3 6 -4 10 -17
10 -16 0 -19 -3 -10 -9 10 -6 9 -10 -7 -14 -13 -3 -24 1 -30 11 -9 15 -11 15
-30 -2 -11 -10 -24 -16 -28 -13 -29 18 -31 -21 -35 -658 l-4 -650 -26 -56
c-15 -32 -40 -67 -60 -82 -76 -59 -51 -57 -900 -57 -540 0 -793 3 -823 11 -54
14 -131 79 -153 129 -9 19 -19 78 -22 130 l-7 95 -1 -91 c-2 -75 -6 -99 -28
-142 -14 -29 -41 -64 -58 -77 -74 -56 -52 -55 -898 -55 -545 0 -793 3 -824 11
-28 7 -63 28 -94 56 -86 77 -81 13 -80 1059 0 903 1 919 21 960 33 70 44 73
85 25 41 -47 90 -75 150 -85 42 -7 170 16 703 129 346 73 373 76 591 77 102 0
177 2 167 5 -9 2 -15 8 -12 13 3 4 -1 8 -8 7 -37 -1 -57 5 -57 16 0 9 35 22
106 37 122 27 179 58 221 121 49 74 45 124 -37 519 -39 190 -100 487 -135 660
-35 173 -84 413 -109 533 -50 249 -69 291 -148 340 -75 46 -131 45 -408 -14z
m428 -245 c39 -16 97 -66 114 -99 7 -13 -1 -10 -23 11 -85 80 -160 86 -399 35
-80 -18 -244 -52 -365 -76 -121 -24 -330 -67 -465 -95 -135 -28 -270 -55 -300
-61 -116 -21 -147 -41 -129 -84 18 -45 10 -94 -20 -127 -26 -29 -35 -33 -76
-32 -25 1 -51 6 -57 12 -16 16 -65 15 -71 0 -3 -7 -6 3 -6 22 0 19 8 53 18 75
20 44 85 108 122 121 75 24 1503 312 1557 313 37 0 78 -5 100 -15z m26 -537
c-3 -40 -16 -303 -29 -586 -13 -283 -28 -517 -32 -521 -9 -9 -236 -60 -265
-60 -14 0 -61 86 -202 368 -136 270 -185 359 -186 337 -5 -181 -41 -790 -47
-796 -4 -4 -62 -19 -128 -33 -66 -14 -130 -28 -142 -31 -19 -5 -45 42 -287
519 -146 289 -266 532 -266 540 0 10 6 13 16 9 8 -3 67 5 130 18 96 19 117 21
124 9 7 -11 301 -673 344 -774 11 -27 13 -23 14 50 1 43 11 234 22 424 11 190
20 357 20 371 0 16 7 30 17 33 42 16 247 56 254 49 7 -7 318 -647 368 -755
l19 -43 -6 445 -5 445 126 25 c70 14 127 28 127 33 0 4 4 5 10 2 6 -3 7 -35 4
-78z m-1911 -1484 c-7 -2 -19 -2 -25 0 -7 3 -2 5 12 5 14 0 19 -2 13 -5z m64
-75 c-3 -8 -6 -5 -6 6 -1 11 2 17 5 13 3 -3 4 -12 1 -19z m95 -485 c11 -13 13
-25 7 -40 -11 -29 -54 -31 -69 -3 -8 15 -6 23 12 40 27 24 31 25 50 3z m4478
-688 c15 -14 18 -14 30 0 16 19 39 19 46 0 4 -10 14 -13 30 -9 21 5 24 3 24
-19 0 -14 4 -28 10 -32 5 -3 7 -12 3 -20 -4 -11 3 -15 26 -15 37 0 42 -23 9
-41 -23 -12 -23 -13 12 -28 l35 -15 -45 -6 c-28 -3 -40 -8 -32 -13 17 -11 15
-27 -3 -27 -17 0 -45 -26 -70 -64 -22 -33 -42 -33 -57 -1 -10 22 -12 23 -23 8
-11 -15 -15 -15 -30 -3 -9 8 -29 14 -43 15 -19 0 -27 5 -26 18 1 9 -4 18 -12
18 -8 1 -18 3 -24 4 -5 1 -15 3 -21 4 -6 0 -9 10 -6 22 3 12 0 22 -9 26 -19 7
-18 43 1 43 15 0 15 9 3 60 -2 10 5 16 22 17 41 2 69 14 75 32 4 13 31 33 54
40 3 0 12 -6 21 -14z m-4655 -205 c-9 -16 -18 -30 -21 -30 -2 0 2 14 11 30 9
17 18 30 21 30 2 0 -2 -13 -11 -30z m-59 -24 c-18 -29 -21 -40 -6 -31 6 4 7
-1 3 -12 -6 -16 -5 -17 12 -3 17 14 18 14 7 -6 -6 -12 -9 -24 -6 -26 2 -3 -1
-18 -7 -34 l-12 -29 -7 25 c-14 43 -11 87 7 119 10 16 19 28 22 26 2 -3 -4
-16 -13 -29z m4541 -88 c-2 -13 -4 -3 -4 22 0 25 2 35 4 23 2 -13 2 -33 0 -45z
m-78 -38 c0 -10 -3 -8 -9 5 -12 27 -12 43 0 25 5 -8 9 -22 9 -30z m-4495 4 c3
-8 2 -12 -4 -9 -6 3 -10 10 -10 16 0 14 7 11 14 -7z m4526 -58 c-5 -13 -6 -27
-2 -32 4 -4 2 -5 -3 -1 -6 3 -9 27 -6 54 3 39 5 44 12 25 5 -12 4 -33 -1 -46z
m-32 -1 c-3 -3 -9 2 -12 12 -6 14 -5 15 5 6 7 -7 10 -15 7 -18z"/>
<path d="M3396 3954 c-190 -46 -339 -199 -393 -404 -11 -44 -17 -103 -16 -180
0 -98 4 -127 27 -193 61 -180 191 -306 363 -353 93 -25 251 -21 344 9 235 75
379 288 379 562 0 283 -151 496 -396 560 -72 19 -229 18 -308 -1z m269 -210
c92 -43 147 -138 166 -283 18 -150 -19 -298 -93 -372 -58 -58 -101 -74 -199
-74 -78 0 -90 3 -135 30 -98 61 -154 184 -154 337 0 200 77 332 220 379 40 13
152 4 195 -17z"/>
<path d="M2365 2650 c11 -5 30 -9 42 -9 12 -1 27 -9 33 -18 11 -17 11 -17 6 0
-3 10 -6 22 -6 26 0 4 -21 8 -47 9 -36 1 -43 -1 -28 -8z"/>
<path d="M1152 1448 l3 -563 120 0 120 0 3 218 2 217 62 0 c59 0 63 -1 101
-42 22 -24 88 -122 146 -218 l106 -175 139 -3 c118 -2 138 0 133 12 -12 31
-214 340 -257 394 -25 30 -60 63 -77 71 -18 9 -33 21 -33 28 0 6 24 23 54 36
70 32 125 83 162 149 26 48 29 62 29 143 0 73 -4 98 -22 131 -30 57 -90 108
-159 135 -56 22 -73 23 -347 27 l-287 4 2 -564z m478 369 c50 -24 73 -68 73
-138 0 -46 -5 -66 -27 -99 -39 -58 -90 -80 -193 -80 l-83 0 0 163 c0 90 3 167
8 171 13 14 185 1 222 -17z"/>
<path d="M3072 1448 l3 -563 255 1 c286 1 330 8 457 69 134 66 242 204 278
356 19 80 19 224 1 311 -39 181 -138 291 -321 355 -79 27 -82 28 -378 31
l-297 4 2 -564z m520 352 c162 -50 249 -214 218 -412 -21 -136 -82 -228 -185
-278 -43 -21 -68 -25 -177 -28 l-128 -4 0 364 c0 201 3 368 7 371 15 16 202 7
265 -13z"/>
</g>
</svg>
